<svg width="100%" height="100%" viewBox="0 0 448 512" fill="#5eead4" xmlns="http://www.w3.org/2000/svg">
  <path d="M224.1 141c-63.6 0-115 51.4-115 115s51.4 115 115 115 115-51.4 115-115-51.4-115-115-115zm0 190c-41.4 0-75-33.6-75-75s33.6-75 75-75 75 33.6 75 75-33.6 75-75 75zm146.4-194.1c0 14.9-12 26.9-26.9 26.9s-26.9-12-26.9-26.9 12-26.9 26.9-26.9 26.9 12 26.9 26.9zm76.1 27.2c-.7-35.9-9.9-67.7-36.3-94.1C383.8 43.5 352 34.3 316.1 33.6c-36.2-.7-144.8-.7-181 0C99.3 34.3 67.5 43.5 41.1 69.9 14.7 96.3 5.5 128.1 4.8 164v184c.7 35.9 9.9 67.7 36.3 94.1 26.4 26.4 58.2 35.6 94.1 36.3 36.2.7 144.8.7 181 0 35.9-.7 67.7-9.9 94.1-36.3 26.4-26.4 35.6-58.2 36.3-94.1 7-63.8 7-125.5 0-189.2z"></path>
</svg>
