<?xml version="1.0" encoding="UTF-8"?>
<svg id="Ebene_1" xmlns="http://www.w3.org/2000/svg" version="1.1" viewBox="0 0 2383 1683">
  <!-- Generator: Adobe Illustrator 30.1.0, SVG Export Plug-In . SVG Version: 2.1.1 Build 136)  -->
  <defs>
    <style>
      .st0 {
        fill: #fff;
      }

      .st0, .st1, .st2 {
        fill-rule: evenodd;
      }

      .st2 {
        fill: #e6007e;
      }
    </style>
  </defs>
  <path d="M1590.31,1100.37c0,26.48,26.41,39.72,52.83,39.72s53.37-13.24,53.37-39.72v-99.77l43.12,110.17c8.62,21.75,29.11,29.32,56.6,29.32,31.8,0,49.59-12.29,49.59-35.94,0-5.2-1.62-10.4-3.77-15.13l-49.59-113.01c-2.7-5.67-4.31-9.46-4.31-12.77,0-2.36.54-6.15,2.16-9.46l49.05-101.66c3.23-6.62,4.31-11.82,4.31-17.02,0-20.33-22.64-29.79-48.51-29.79-30.73,0-45.82,10.88-56.6,35.46l-42.05,93.15v-88.9c0-26.48-26.41-39.72-52.83-39.72s-53.37,13.24-53.37,39.72v255.34Z"/>
  <path class="st1" d="M469.54,479.19c-.1-.07-.2-.13-.3-.2-3.54-2.32-7.04-4.7-10.49-7.13-.75-.53-1.52-1.04-2.32-1.51-2.6-1.56-5.37-2.58-8.2-3.09-3.11-1.9-6.19-3.85-9.27-5.88-3.54-2.32-7.04-4.7-10.49-7.13-.75-.53-1.52-1.04-2.32-1.51-7.34-4.39-16.02-4.57-23.42-.71-.68.35-1.34.73-1.99,1.14,0,0,.01,0,.02-.01-.56.35-1.12.72-1.67,1.09l-22.7,17.09c-1.45.9-2.85,1.88-4.19,2.93-2.06,1.62-3.95,3.42-5.62,5.39-3.69,4.34-6.17,9.41-7.22,14.82-.46,2.35-.66,4.73-.59,7.12.06,2.3.34,4.59.84,6.85.86,3.89,2.27,7.61,4.1,11.19,1.3,2.54,2.57,5.1,3.82,7.66,1.36,2.8,2.69,5.61,3.99,8.44,4.07,8.9,8.2,18.76,11.89,27.79,1.42,3.47,2.83,6.94,4.23,10.41,2.86,7.1,5.7,14.2,8.53,21.31,6.59,16.56,12.72,32.95,18.5,49.68,4.87,14.08,9.23,27.66,13.53,41.78-7.01,3.53-12.35,8.66-16.16,15.11-1.53,2.6-2.78,5.3-3.82,8.1-.43,1.16-.83,2.34-1.2,3.52h0c-1.08,3.47-1.93,7.12-2.62,10.7-.65,3.4-1.11,6.66-1.29,10.07-.13,2.3-.1,4.5.1,6.76.13,1.46.35,2.91.65,4.35.77,3.67,2.19,7.19,4.32,10.36,3.83,5.7,9.68,9.74,16.64,11.6,3.46.92,7.01,1.3,10.6,1.24.15,0,.31,0,.46,0,.7,1.66,1.55,3.25,2.57,4.77,2.9,4.32,6.97,7.69,11.8,9.88,1.5,7.65,2.91,15.44,4.1,22.39,2.33,13.61,5.69,35.28,6.94,50.33.12,1.45.22,2.91.3,4.36.06,1.3.14,2.59.25,3.88.13,1.64.33,3.28.6,4.9.34,2.04.78,3.91,1.41,5.85.82,2.53,1.97,4.96,3.5,7.19,2.27,3.31,5.31,6.01,8.99,7.87,5.14,2.6,11.12,3.28,16.79,2.01.26-.06.52-.12.78-.18.07.24.15.47.22.71.82,2.53,1.97,4.96,3.5,7.19,2.27,3.31,5.31,6.01,8.99,7.87,5.14,2.6,11.12,3.28,16.79,2.01,1.89-.42,3.72-1.03,5.45-1.83,2.32-1.06,4.47-2.4,6.45-3.94,1.01-.79,1.98-1.62,2.91-2.48l10.67-8.1v192.75c0,33.1,14.55,57.21,54.98,57.21h53.37c74.39,0,153.63-11.82,153.63-90.31,0-36.88-12.94-61-50.13-79.44-5.39-2.84-4.31-5.2,0-8.51,19.83-15.27,32.72-35.12,35.16-58.16l9.51-2.05c.27.59.54,1.17.83,1.75h0c.98,1.96,1.99,3.75,3.16,5.6.7,1.12,1.45,2.21,2.24,3.27l7.8,10.48,13.63-2.93v161.37c0,33.1,14.55,57.21,54.98,57.21h105.65c23.72,0,39.89-17.97,39.89-40.19s-16.17-39.72-39.89-39.72h-33.96c-16.17,0-20.48-6.62-20.48-18.44v-143.08l56.78-12.22c1.43,1.95,3.05,3.76,4.83,5.42,1.98,1.85,4.15,3.49,6.47,4.89.5,1.29,1.06,2.56,1.67,3.81l.63,1.28.26.47c1.97,3.52,4.48,6.72,7.43,9.47,3.22,3.01,6.93,5.46,10.97,7.23l.19.08,3.64,1.51,5,1.24.45.09c1.1.22,2.21.41,3.33.56.98.13,1.97.25,2.95.34,1.99.19,3.99.32,5.99.38,2.62.1,5.24.15,7.87.15,3.94,0,7.87-.05,11.81-.15,3.97-.11,7.93-.23,11.89-.38,1.69-.06,3.38-.13,5.07-.21,3.27-.16,6.55-.28,9.82-.37,5.91-.15,16-.37,23.08-.52l10.48-19.7c1.46-2.74,2.97-5.46,4.52-8.15,1.58-2.74,3.25-5.42,5.03-8.04,1.4-2.04,2.9-4.02,4.49-5.93l8.2-9.6c1.33-1.59,2.65-3.19,3.95-4.8,1.33-1.64,2.65-3.29,3.97-4.94,2.73-3.43,5.79-7.32,8.93-11.34l58.17-12.52,3.15-2c1.3-.83,2.58-1.67,3.84-2.53,3.52-2.39,6.76-4.73,10.09-7.33,2.21-1.73,4.36-3.52,6.45-5.38,2.01-1.8,3.99-3.74,5.79-5.74,1.51-1.68,2.9-3.42,4.15-5.28.76-1.13,1.45-2.31,2.07-3.52,1.48-2.88,2.45-5.97,2.75-9.16.18-1.87.11-3.74-.19-5.59-.19-1.13-.38-2.26-.59-3.39-.37-2.11-.79-4.21-1.46-6.26-1.27-3.89-3.42-7.27-6.59-9.98-4.48-3.81-10.38-5.64-16.38-5.27-.89.05-1.78.15-2.66.29,5.47-5.86,10.98-11.68,16.52-17.46,6.17-6.43,12.42-12.78,18.76-19.05,11.7,10.62,26.06,23.53,38.35,34.42,9.53,8.43,19.2,16.71,29,24.83,3.4,2.83,6.84,5.62,10.29,8.37l-24.01,22.09c-6.06-4.52-14.07-7.28-22.85-7.28-18.94,0-34.29,12.81-34.29,28.61,0,12.94,10.3,23.88,24.43,27.41l-.02,67.02h.04s-.01,0-.01,0l38.31,32.64-38.81,31.69.27.28-1.4,70.81c-13.3,3.94-22.82,14.53-22.82,26.97,0,15.8,15.35,28.61,34.29,28.61,8.66,0,16.58-2.68,22.61-7.1l134.27,104.33c-.05.64-.08,1.28-.08,1.92,0,15.8,15.35,28.61,34.29,28.61s34.29-12.81,34.29-28.61c0-.57-.02-1.14-.06-1.7l133.17-94.09-.12-.18h.49s.69-134.66.69-134.66c13.47-3.86,23.15-14.52,23.15-27.07s-9.52-23.03-22.81-26.97l.5-135.24c13.03-4.05,22.31-14.53,22.31-26.82,0-15.8-15.35-28.61-34.29-28.61-9.2,0-17.55,3.02-23.71,7.94l-96.53-67.76c-.39-15.52-15.59-28-34.28-28s-34.29,12.81-34.29,28.61c0,.9.05,1.79.15,2.67l-20.36,18.73c-3.73-2.68-7.42-5.42-11.07-8.2l-4.97-3.78c-5.26-4-9.84-7.48-14.98-11.54-2.41-1.9-4.78-3.84-7.13-5.81-1.73-1.46-3.47-2.9-5.23-4.33-1.89-1.54-3.78-3.07-5.68-4.6-2.31-1.86-4.61-3.73-6.89-5.61-2.39-1.97-4.74-3.99-7.06-6.05-4.37-3.91-8.74-7.82-13.09-11.75-1.91-1.72-3.81-3.44-5.72-5.17,8.98-7.83,17.93-15.33,27.27-22.75,7.95-6.31,16.06-12.43,24.32-18.34,9.19-6.56,18.53-12.91,28.01-19.05,4.57-2.95,9.26-5.72,14.06-8.3,2.97-1.58,5.95-3.12,8.95-4.65,2.4-1.22,7.06-3.53,10.08-5.02,2.38-1.17,4.73-2.37,7.07-3.6,1.28-.68,2.55-1.37,3.82-2.08,1.46-.82,2.91-1.67,4.34-2.54,3.16-1.92,6.17-4.06,9.02-6.42,3.18-2.63,6.05-5.61,8.55-8.88,2.35-3.04,4.31-6.37,5.83-9.9,3.49-8.11,4.5-17.04,2.95-25.67-.83-4.65-2.39-9.14-4.6-13.32-2.26-4.3-5.09-8.29-8.4-11.84l-4.09-4.44c-1.45-1.57-2.94-3.1-4.48-4.59-2.17-3.94-4.82-7.6-7.89-10.89l-4.09-4.44c-1.79-1.94-3.64-3.81-5.56-5.62-1.07-1.01-2.17-1.99-3.29-2.94-1.34-1.14-2.73-2.23-4.15-3.27-8.65-6.3-18.75-9.73-29.51-9.53-1.88.03-3.76.17-5.62.42-1.88.25-3.75.61-5.6,1.06-3.6.82-7.15,1.87-10.63,3.13-1.83.67-3.63,1.39-5.41,2.16-1.8.78-3.59,1.6-5.35,2.46-2.56,1.24-4.83,2.24-7.35,3.33-4.97,2.15-9.85,4.5-14.63,7.02-3.14,1.65-6.25,3.34-9.34,5.08-3.35,1.89-6.68,3.83-9.98,5.81-6.67,4.01-13.58,8.38-20.16,12.73-6.56,4.34-13.04,8.79-19.44,13.36-7.12,5.07-14.15,10.28-21.08,15.61-12.12,9.3-24.02,18.9-35.67,28.79h0c-2.87,2.43-5.73,4.88-8.58,7.35-10.34-10.6-19.32-19.56-29.8-29.71-4.81-4.66-9.67-9.25-14.58-13.79-2.59-2.39-5.2-4.76-7.83-7.11-2.94-2.62-5.9-5.22-8.9-7.77-4.65-3.99-9.43-7.83-14.33-11.52l-5.28-4.03c-5.62-4.38-11.36-8.62-17.2-12.71-8.7-6.1-17.83-11.57-27.33-16.35-4.38-2.2-8.86-4.19-13.43-5.96-5.07-1.97-10.24-3.66-15.49-5.06l-.06-.02c-5.67-1.49-11.45-2.57-17.28-3.23-3.25-.36-6.52-.58-9.8-.65-3.66-.08-7.53,0-11.23.35-7.16.67-14.09,2.99-20.22,6.73-6.73,4.1-12.34,9.8-16.33,16.59-2.4,4.08-4.21,8.48-5.37,13.05-1.29-.92-2.59-1.82-3.91-2.7-3.77-2.49-8.07-3.86-12.58-4.33-.56-.45-1.12-.91-1.69-1.36-3.53-2.83-7.35-5.78-11.07-8.47-1.63-1.18-3.27-2.33-4.95-3.45-4.47-2.95-9.68-4.32-15.09-4.5,0,0,.02,0,.02,0-1.11-.04-2.22-.03-3.32.02-3.12.14-6.32.6-9.37,1.21-2.34.47-4.65,1.01-6.95,1.62-2.26.6-4.5,1.24-6.73,1.91-3.37,1.02-7.33,2.3-10.83,3.48-3.75,1.27-7.49,2.55-11.23,3.86-3.11,1.09-6.28,2.43-9.26,3.81-2.45,1.14-4.86,2.33-7.25,3.58-1.89.98-3.76,1.99-5.62,3.02-5.15,2.86-10.21,5.85-15.18,8.98l-9.39,5.92.58,10.51c.15,2.74.28,5.49.39,8.23.6,15.19.82,30.41.69,45.62-.08,9.37-.33,18.73-.74,28.09-.26,5.98-.61,11.96-1.05,17.94-.47,6.55-1.08,13.1-1.82,19.63-.37,3.23-.78,6.46-1.23,9.68-.5,3.55-1.06,7.09-1.68,10.63-.57,3.24-1.21,6.47-1.91,9.68-2.06.18-5.89.5-8.09.68-6.3.51-12.95,1.08-19.24,1.81-1.68.2-3.36.42-5.04.65-3.87.55-7.66,1.22-11.46,2.1-3.5.81-7.02,1.85-10.36,3.16-5.07,1.99-9.77,4.66-13.71,8.27-.76.69-1.47,1.43-2.13,2.21-.35.41-.7.83-1.03,1.25-2.27,2.91-4.72,6.9-6.54,10.07-1.67,2.9-3.25,5.84-4.73,8.83-1.26,2.51-2.43,5.07-3.5,7.65-.68,1.64-1.31,3.3-1.87,4.98-.37,1.09-.69,2.19-.98,3.3-1.25,4.8-1.55,9.55-.11,14.35.81,2.72,2.18,5.26,4.04,7.5,2.79,3.34,6.48,5.8,10.8,7.2l-6.3,3.8c-1.88,1.13-3.75,2.27-5.62,3.42-7.25,4.53-14.53,9.02-21.84,13.47l-26.72-127.55,17.05-4.32c5.51-1.41,11.38-3.83,16.44-6.3,2.3-1.12,4.57-2.31,6.8-3.55,8.96-5,18-11.24,25.48-18.16,1.11-1.03,2.18-2.08,3.23-3.15,1.25-1.28,2.45-2.6,3.6-3.96,3.17-3.78,5.1-8.25,5.9-12.95.48-2.8.59-5.62.42-8.45-.12-1.97-.36-3.94-.72-5.89-.69-3.82-1.7-7.45-2.98-11.13-.47-1.37-.99-2.73-1.56-4.08l-6.22-14.87-16.82,3.34c-1.51.3-3.03.59-4.55.86-.06.01-.12.02-.19.03-.3-.96-.61-1.92-.95-2.89-.47-1.37-.99-2.73-1.56-4.08l-6.22-14.87-16.82,3.34c-1.51.3-3.03.59-4.55.86-14.97,2.74-30.99,5.07-46.08,6.82-9.08,1.06-18.18,1.93-27.3,2.61-5.99.45-11.99.79-18,1.05-6.56.28-13.12.41-19.68.39-4.44-.01-8.88-.07-13.32-.17-4.96-.11-9.92-.3-14.87-.56-4.96-.26-9.92-.61-14.86-1.06-5.51-.5-11.01-1.12-16.49-1.88-4.77-.67-9.53-1.43-14.27-2.29-2.52-.46-5.03-.94-7.54-1.45-11.1-2.24-22.54-4.98-33.6-7.64l-8.86-2.12c-2.07-.49-4.15-1-6.21-1.52-6.85-1.72-13.66-3.64-20.27-6.06-2.04-.75-4.07-1.55-6.07-2.39-2.26-.95-4.5-1.94-6.71-2.98-2.3-1.07-4.58-2.18-6.84-3.31-1.93-.96-3.85-1.94-5.76-2.92ZM587.21,813.78c-.36-1.64-.73-3.28-1.11-4.92-1.13-4.86-2.3-9.72-3.53-14.56-1.51-5.98-3.07-11.94-4.67-17.9-.79-2.92-1.58-5.84-2.39-8.75l60.66-13.31,1.27-.45c1.79-.64,3.52-1.41,5.17-2.3,2.19-1.18,4.22-2.61,6.05-4.23.48-.43.94-.86,1.38-1.32,1.39,7.15,2.67,14.31,3.84,21.5,1.14,6.98,2.17,13.98,3.11,20.99,1.03,7.69,1.96,15.39,2.81,23.09.02.18.04.37.06.55h-56.01c-6.13,0-11.66.55-16.64,1.61ZM633.81,675.39c-1.1-.07-2.2-.08-3.3-.04-.75.03-1.49.09-2.24.17-.58.06-1.16.14-1.74.22-.09.01-.19.03-.28.04-.17-.64-.36-1.28-.58-1.91-1.28-3.69-3.45-7-6.43-9.68-3.65-3.29-8.31-5.41-13.32-6.15-1.88-.28-3.79-.38-5.69-.29-.75.03-1.49.09-2.24.17-.58.06-1.16.14-1.74.22-4.51.64-9.02,1.25-13.53,1.85-8.18,1.07-13.99,1.77-22.74,2.83-6.73.82-12.74,1.59-19.22,2.52-8.67-22.63-19.25-47.25-28.47-67.99.94.38,1.88.75,2.83,1.12,15.79,6.18,32,10.85,48.8,14.04,6.25,1.18,12.55,2.17,18.87,2.95,10.24,1.26,20.51,2.33,30.8,3.21.69.06,1.39.12,2.08.18.59,1.54,1.17,3.08,1.76,4.62.97,2.57,1.91,5.14,2.83,7.72,5.19,14.5,9.63,29.34,13.53,44.21ZM974.91,782.2c.07-.22.15-.44.22-.67,4.21-12.91,7.86-25.93,10.9-39.11.74-3.21,1.44-6.42,2.11-9.64l99.72-10.6c-3.63,3.92-7.25,7.86-10.86,11.8-.3.32-.58.64-.87.98-10.15,12.13-20.32,24.24-30.53,36.32l-70.69,10.92ZM1163.36,643.56l-.75.03c-.17-.72-.37-1.44-.6-2.16-.84-2.54-2.15-4.92-3.88-7.04-2.42-2.96-5.61-5.3-9.27-6.8-2.83-1.16-5.87-1.8-8.96-1.92-1.57-.06-3.14,0-4.7.18l-134.67,6.23c1.33-15.88,2.23-32.03,2.63-47.89l19.69,18.79,8.19-3.47,22.09,21.08,80.34-34.09c3.87,3.6,7.58,6.71,11.7,10.23,2.72,2.33,5.55,4.83,8.09,7.36l22.77,22.68c.74.73,1.47,1.47,2.21,2.2-1.63,1.46-3.25,2.96-4.79,4.49-3.37,3.35-6.74,6.71-10.09,10.08ZM673.2,888.36c14.65,1,19.6,13.23,19.6,25.47,0,10.4-5.39,24.12-21.56,24.12s-21.56-13.71-21.56-24.12c0-11.54,4.4-23.08,17.19-25.19l.3,3.57,6.03-3.85ZM696.03,1034.88c0,13.71-5.93,30.74-23.18,30.74-18.87,0-23.18-19.86-23.18-30.74,0-14.19,8.09-26.95,23.18-26.95s23.18,12.77,23.18,26.95ZM1363.9,808.48c3.67,2.77,7.36,5.5,11.08,8.19,4.09,2.87,8.17,5.75,12.24,8.65l1.64,1.16c.76.54,1.53,1.07,2.31,1.58,1.65,1.1,2.99,1.87,4.81,2.86-4.66,3.97,28.67,20.05,24.49,24.52,0,0,4.72-2.97,12.26-7.72l17.84,12.31,14.67-8.38c1.12-.76,11.35,9.27,12.57,8.68,1.37-.65,5.73,8.21,7.19,7.78.37-.11,1.05-.41,1.9-.8l-1.08,93.21h-135.65l-36.99-30.77-.12-60.8c14.31-3.44,24.78-14.45,24.78-27.5,0-2.64-.43-5.19-1.23-7.61l27.28-25.35ZM1506.01,889.37c5.29,2.55,9.47,3.38,13.03,4.01,10.49,1.86,15.91,1.52,22.76,1.18,5.45-.27,9.83-1.9,12.5-3.46,2.06-1.21,4.05-2.55,5.95-4.01,6.79-5.21,12.15-11.83,15.84-19.56,1.13-2.36,2.1-4.8,2.9-7.29.83-2.58,1.5-5.2,2.01-7.86.47-2.48.82-4.99,1.04-7.51.23-2.59.34-5.2.34-7.8,0-5.89-.66-11.68-2.16-17.39-.62-2.36-1.39-4.67-2.3-6.93-1.78-4.43-4.12-8.6-6.97-12.43-1.49-2-3.12-3.91-4.87-5.69-1.65-1.69-3.4-3.28-5.24-4.75l-7.74-7.14c-.72-.7-1.47-1.38-2.24-2.03-.78-.67-1.58-1.32-2.4-1.96-1.48-1.15-3-2.26-4.55-3.32-2.73-1.95-5.46-3.89-8.2-5.83-3.19-2.26-6.42-4.46-9.68-6.61-1.61-1.06-3.23-2.1-4.87-3.12-1.85-1.16-3.73-2.28-5.62-3.36-1.99-1.14-4.01-2.23-6.06-3.27-.63-.32-1.27-.64-1.91-.94l.39-33.56c7.62-2.05,14.08-6.27,18.33-11.78l92.31,65.69c-.61,2.14-.94,4.37-.94,6.67,0,13.69,11.52,25.13,26.9,27.95l-.49,133.23c-12.11,2.37-21.75,10.1-25.12,20.03h-113.79l.82-71.14ZM1488.35,743.09c-2.74-1.55-5.44-3.19-8.08-4.85-3.79-2.39-7.95-5.15-11.78-7.75-1.98-1.34-3.95-2.68-5.92-4.03-2-1.37-4.01-2.74-6.02-4.1l14.06-13.06c4.52,4.74,10.8,8.25,18.02,9.85l-.28,23.94ZM1643.75,996.12l-.63,124.64-120.99,88.14c-4.21-4.7-10.11-8.28-16.95-10.12v-222.12h113.96c3.49,9.59,12.85,17.05,24.6,19.46ZM1467.32,1208.75l-130.78-102.62c.85-2.5,1.31-5.13,1.31-7.86,0-13.53-11.26-24.87-26.39-27.85l1.25-63.26,36.42-30.49h136.7v221.7c-7.48,1.66-13.96,5.38-18.51,10.38Z"/>
  <path class="st0" d="M1240.73,692.12s0,0,0,0c0,0,0,0,0,0,4.13-4.06,8.08-7.88,12.08-11.58.22.19.44.39.66.59,16.08,14.7,35.15,31.91,51.45,46.35,9.11,8.07,19.13,16.64,28.51,24.41h-.01c10.94,9.07,22.18,17.79,33.7,26.12,23.78,16.68,10.42,7.88,29.7,18.98,8.43,4.85,24.35,13.08,29.14,15.48-45.95,29.79-83.45,85.99-83.45,144.3,0,85.11,43.53,167.39,147.03,167.39,38.81,0,103.28-38.12,69.54-45.39-51.98-11.2-46.18-25.83-70.11-37.97-40.39-20.48-47.94-52.35-47.94-84.03s12.4-77.07,57.68-77.07c31.26,0,60.37-6.62,60.37-44.92,0-12.32-3.95-21.02-10.79-27.33l.6-.56-2.57-1.13c-5.68-4.53-13.01-7.71-21.51-10.11-1.71-.77-3.41-1.5-4.43-2.19-11.09-7.9-16.46-13.91-29.12-19.03l-4.36-6.1c-17.37-7.04-27.64-17.24-45.11-29.03l-16.59-10.33c-8.2-5.56-.57-1.2-8.45-7.2l-3.13-3.44c-8.8-6.71-18.78-13.85-27.24-20.98-8.53-7.2-17.97-15.1-26.3-22.54-10.35-9.25-18.21-13.53-28.49-22.86-7.68-6.97-13.13-12.06-20.35-19.1-2.12-2.06,0-5.24-1.97-7.23.39-.35.77-.69,1.14-1.03,15.4-14.03,29.89-26.6,45.85-39.29h-.01c8.23-6.52,16.61-12.84,25.16-18.96h-.02c9.45-6.73,19.05-13.26,28.8-19.57h-.01c5.05-3.26,10.24-6.31,15.54-9.16,7.67-4.06,11.82-6.12,19.62-9.97,4.4-2.17,9.35-4.72,13.62-7.34,2.33-1.42,4.56-3,6.67-4.75,2.01-1.66,3.83-3.55,5.41-5.62,6.11-7.91,7.02-18.34,2.34-27.18-1.44-2.74-3.24-5.28-5.35-7.54l-4.13-4.48c-2.92-3.15-6.46-6.61-10.04-9.2-7.25-5.28-15.47-6.92-24.17-4.73-6.3,1.43-11.26,3.38-17.26,6.27-3.15,1.52-4.92,2.3-8.14,3.69-4.49,1.95-8.9,4.06-13.22,6.35h0s-.02,0-.03.01h.02s-.01,0-.02,0c-24.83,13-53.54,32.61-77.1,50.74h.02c-11.87,9.09-23.52,18.49-34.93,28.17-7.68,6.51-15.26,13.13-22.76,19.85-5.97-6.24-11.98-12.44-18.03-18.6-8.12-8.27-16.35-16.44-24.68-24.5-9.51-9.21-20.14-19.1-30.39-27.84-4.35-3.73-8.82-7.32-13.4-10.77l-5.41-4.13c-5.38-4.19-10.86-8.25-16.45-12.16h.01c-7.91-5.54-16.21-10.51-24.84-14.85-7.91-3.98-16.48-7.27-25.04-9.54-4.66-1.24-9.61-2.15-14.4-2.69-5.27-.59-11.62-.76-16.89-.27-8.73.82-16.61,5.93-21.04,13.47-3.84,6.49-4.97,14.23-3.5,21.6.71,3.57,2.14,7.02,4.15,10.05,1.44,2.2,3.13,4.29,4.98,6.16,2.82,2.84,6.02,5.5,9.31,7.79,2.73,1.92,5.54,3.74,8.42,5.44h-.01c2.99,1.76,6.01,3.46,9.08,5.09,16.68,8.98,33.82,18.17,47.4,31.39,7.44,7.25,15.03,12.75,22.4,20.08l22.78,22.69h0c7.76,7.73,15.59,15.39,23.49,22.99,4.25,4.1,7.56,9.13,11.92,13.12-6.31,6.07-15.6,13.22-21.56,19.13h0c-32.7,32.51-64.63,65.78-95.76,99.78l-.27.3-.26.31c-15.7,18.77-31.47,37.49-47.32,56.15-4.44,5.23-8.72,10.2-13.24,15.35-2.04,2.29-4.04,4.6-6.02,6.94,0,0,0,0-.01.01h.01s-.01,0-.02,0h0c-2.42,2.84-4.72,5.77-6.91,8.79-2.69,3.65-5.07,7.69-6.93,11.83-1.39,3.09-2.34,6.41-2.81,9.77-.8,5.47.08,11.06,2.52,16.02l.39.8c1.97,3.55,5.21,6.45,8.92,8.07l2.05.85,3.08.77c2.46.51,6.34.83,8.97.9,2.39.09,4.79.14,7.19.14h0c3.76,0,7.52-.05,11.27-.15,3.8-.1,12.76-.38,16.53-.57,7.31-.37,14.3-.48,21.61-.66l4.92-9.26c1.56-2.94,3.18-5.85,4.85-8.74v-.02c1.88-3.24,3.75-6.24,5.85-9.33,1.79-2.61,3.71-5.14,5.74-7.57l8.14-9.53c11.33-13.49,42.98-54.87,58.42-75.22,14.53-16.26,29.34-32.26,44.44-48,6.85-7.14,13.8-14.18,20.85-21.12ZM1021.67,824.34s.01-.01.02-.02l-.02.02ZM1391.03,473.13l-.03.02.03-.02Z"/>
  <path class="st0" d="M1124.81,689.12h0s0,0,0,0Z"/>
  <path class="st0" d="M1367.13,778s0,0,0,0h0Z"/>
  <path class="st0" d="M1512.27,894.19c31.26,0,60.37-6.72,60.37-45.61,0-35.05-30.73-46.09-69.54-46.09-103.5,0-156.32,83.54-156.32,169.96s52.83,169.96,156.32,169.96c38.81,0,69.54-11.04,69.54-46.09,0-38.89-29.11-45.61-60.37-45.61-45.28,0-57.68-46.09-57.68-78.26s12.4-78.26,57.68-78.26Z"/>
  <path class="st0" d="M729.51,785.72l.08.38c-3.32,1.69-3.09,1.44-.08-.38ZM631.45,583.57c.44-.06,1.02-.08,1.77-.05,1.5.06.77.1-1.77.05ZM631.45,583.57c-3.52.52,1.95,4.04-1.1,8.56-3.98,5.9,9.17,20.46,25.73,87.46,16.56,67,21.88,99.17,28.55,177.29l190.51-121.66s-5.46,22.03-16.11,39.15c-9.79,15.75-15.47,26.72-30.53,44.99-14.05,17.06-39.92,37.6-39.92,37.6,0,0,1.3,11.87,4.67,20.08,2.02,4.91,4.78,8.52,4.78,8.52l390.59-84.06s27.91-17.57,26.42-26.27c-1.61-9.41-1.55-9.76-6.23-8.59-7.11,1.78-32.76,4.81-32.76,4.81l-77.2,9.06-196.16,30.31s10.04-17.5,17.41-37.8c11.97-32.93,17.52-58.62,20.58-76.37l183.71-19.53c2.45-.32,2.97-.52,5.21-1.98,5.06-3.3,22.6-34.58,7.64-32.16l-191.5,8.86s10.89-71.12,6.06-145.11l75.69,72.23,60.15-25.52s-76.68-74.43-107.41-94.93c-5.39-3.59-23.91,2.65-44.66,9.88-12.99,4.53-33.09,17.37-33.09,17.37,0,0,6.41,109.51-11.19,167.61-28.48,3.48-59.12,2.8-70.04,12.85-3.16,2.91-15.11,23.91-15.81,31.88-.43,4.86,2.97,5.53,8.63,3.96,12.34-3.43,36.92-1.84,54.52-2.09-14.07,10.8-61.21,38.62-68.26,43.02-33.69,21.06-62.62,37.76-70.84,42.72l-42.61-203.43s11.16-2.81,35.05-8.87c11.86-3.01,34-15.56,45.02-28.59,5.7-6.74-1.83-24.24-1.83-24.24,0,0-61,12.32-119.88,12.15-58.88-.17-84.78-7.26-128.78-17.77-25.25-6.03-35.75-10.13-58.47-21.89-14.82-7.68-27.91-15.81-41.67-25.46-2.15-1.51-2.64-1.51-4.87-.03l-23.07,17.37c-5.02,2.97-14.1,9.91-6.35,25.15,8.91,17.52,14.75,30.87,33.16,77.14,19.37,48.71,29.55,82.73,37.7,110.12-16.37,3.3-24.02,5.05-28.53,28.52-3.97,20.63,3.64,23.84,15.85,21.93,12.85-2,11.04-1.94,21.91-3.16,6.45,18.05,18.43,87.62,19.71,113.21.3,5.97,1.11,21.77,12.47,10.54l39.79-30.23c11.65-8.27,6.49-22.69,4.96-30.99-3.92-21.15-15.84-64.01-18.67-72.42l79.63-17.47c6.36-2.3,9.31-7.04,8.53-18.82l-1.57-18.38c-.57-5.94-5.24-5.31-7.54-4.99-40.9,5.77-44.72,4.72-95.34,13.73-8.86-30.95-31.67-85.64-63.29-152.99,35.96,21.76,70.2,36.45,114.48,41.93,35.77,4.43,67.22,5.61,76.17,5.78ZM1128.39,698.54h0s0,0,0,0Z"/>
  <path class="st1" d="M1294.89,976.83c0-79.91-31.8-167.39-138-167.39s-138,87.48-138,167.39,31.8,167.39,138,167.39,138-87.48,138-167.39ZM1125.09,976.83c0-40.67,3.77-81.8,31.8-81.8s31.8,41.14,31.8,81.8-3.77,81.8-31.8,81.8-31.8-41.14-31.8-81.8Z"/>
  <path class="st2" d="M1428.23,820.13c-54.88,28.83-82.74,90.06-82.74,152.82,0,86.42,52.83,169.96,156.32,169.96,38.81,0,69.54-11.04,69.54-46.09,0-38.89-29.11-45.61-60.37-45.61-45.28,0-57.68-46.09-57.68-78.26s12.4-78.26,57.68-78.26c31.26,0,60.37-6.72,60.37-45.61,0-16.96-7.19-28.3-19.02-35.48-22.57-16.75-45.16-32.2-63.49-44.36-19.93-13.22-32-21.17-49.47-32.96h.02c-8.2-5.54-16.25-11.33-24.13-17.33h.01c-8.8-6.7-19.41-14.62-27.87-21.75-8.53-7.2-16.97-13.53-25.3-20.97-10.35-9.25-17.31-15.54-27.59-24.86-7.68-6.97-13.19-12.17-20.41-19.21-2.12-2.06-4.14-4.06-6.11-6.04.39-.35.77-.69,1.14-1.03,15.4-14.03,29.89-26.6,45.85-39.29h-.01c8.23-6.52,16.61-12.84,25.16-18.96h-.02c9.45-6.73,19.05-13.26,28.8-19.57h-.01c5.05-3.26,10.24-6.31,15.54-9.16,7.67-4.06,11.82-6.12,19.62-9.97,4.4-2.17,9.35-4.72,13.62-7.34,2.33-1.42,4.56-3,6.67-4.75,2.01-1.66,3.83-3.55,5.41-5.62,6.11-7.91,7.02-18.34,2.34-27.18-1.44-2.74-3.24-5.28-5.35-7.54l-4.13-4.48c-2.92-3.15-6.46-6.61-10.04-9.2-7.25-5.28-15.47-6.92-24.17-4.73-6.3,1.43-11.26,3.38-17.26,6.27-3.15,1.52-4.92,2.3-8.14,3.69-4.49,1.95-8.9,4.06-13.22,6.35h0s-.02,0-.03.01h.02s-.01,0-.02,0c-24.83,13-53.54,32.61-77.1,50.74h.02c-11.87,9.09-23.52,18.49-34.93,28.17-7.68,6.51-15.26,13.13-22.76,19.85-5.97-6.24-11.98-12.44-18.03-18.6-8.12-8.27-16.35-16.44-24.68-24.5-9.51-9.21-20.14-19.1-30.39-27.84-4.35-3.73-8.82-7.32-13.4-10.77l-5.41-4.13c-5.38-4.19-10.86-8.25-16.45-12.16h.01c-7.91-5.54-16.21-10.51-24.84-14.85-7.91-3.98-16.48-7.27-25.04-9.54-4.66-1.24-9.61-2.15-14.4-2.69-5.27-.59-11.62-.76-16.89-.27-8.73.82-16.61,5.93-21.04,13.47-3.84,6.49-4.97,14.23-3.5,21.6.71,3.57,2.14,7.02,4.15,10.05,1.44,2.2,3.13,4.29,4.98,6.16,2.82,2.84,6.02,5.5,9.31,7.79,2.73,1.92,5.54,3.74,8.42,5.44h-.01c2.99,1.76,6.01,3.46,9.08,5.09,16.68,8.98,33.82,18.17,47.4,31.39,7.44,7.25,15.03,12.75,22.4,20.08l22.78,22.69h0c7.76,7.73,15.59,15.39,23.49,22.99,4.25,4.1,7.56,9.13,11.92,13.12-6.31,6.07-15.6,13.22-21.56,19.13h0c-32.7,32.51-64.63,65.78-95.76,99.78l-.27.3-.26.31c-15.7,18.77-31.47,37.49-47.32,56.15-4.44,5.23-8.72,10.2-13.24,15.35-2.04,2.29-4.04,4.6-6.02,6.94,0,0,0,0-.01.01h.01s-.01,0-.02,0h0c-2.42,2.84-4.72,5.77-6.91,8.79-2.69,3.65-5.07,7.69-6.93,11.83-1.39,3.09-2.34,6.41-2.81,9.77-.8,5.47.08,11.06,2.52,16.02l.39.8c1.97,3.55,5.21,6.45,8.92,8.07l2.05.85,3.08.77c2.46.51,6.34.83,8.97.9,2.39.09,4.79.14,7.19.14h0c3.76,0,7.52-.05,11.27-.15,3.8-.1,12.76-.38,16.53-.57,7.31-.37,14.3-.48,21.61-.66l4.92-9.26c1.56-2.94,3.18-5.85,4.85-8.74v-.02c1.88-3.24,3.75-6.24,5.85-9.33,1.79-2.61,3.71-5.14,5.74-7.57l8.14-9.53c11.33-13.49,42.98-54.87,58.42-75.22,14.53-16.26,29.34-32.26,44.44-48,6.85-7.14,13.8-14.18,20.85-21.12,0,0,0,0,0,0,0,0,0,0,0,0,4.13-4.06,8.08-7.88,12.08-11.58.22.19.44.39.66.59,16.08,14.7,35.15,31.91,51.45,46.35,9.11,8.07,19.13,16.64,28.51,24.41h-.01c10.94,9.07,22.18,17.3,33.7,25.63,23.78,16.68,12.39,8.93,29.22,20.43,7.65,5.23,14.51,10.31,33.17,21.68ZM1020.39,824.84s.01-.01.02-.02l-.02.02ZM1389.75,473.62l-.03.02s.02-.01.03-.02Z"/>
  <path class="st2" d="M1123.52,689.62h0s0,0,0,0Z"/>
  <path class="st2" d="M1365.84,778.01s0,0,0,0h0Z"/>
  <path class="st1" d="M1512.2,904.51c7.34.07,14.68-.4,21.95-1.41h.03c3.99-.57,8.16-1.49,12.03-2.63,4.68-1.36,9.18-3.3,13.39-5.77,12.21-7.11,19.53-18.93,22.01-32.54.82-4.48,1.22-9.03,1.19-13.59.01-3.83-.33-7.64-1.02-11.41-2.58-14.65-11.38-26.26-23.78-33.42h0c-4.02-2.32-8.26-4.23-12.66-5.71h.01c-4.55-1.53-9.21-2.72-13.93-3.56h.02c-4.52-.81-9.08-1.4-13.66-1.75-4.88-.38-9.78-.56-14.69-.56-9.28-.02-18.56.66-27.75,2.01-10.4,1.53-20.64,4.07-30.57,7.57-44.91,15.8-77.52,51.05-94.42,95.02-4.41,11.46-7.77,23.31-10.02,35.4-2.48,13.27-3.73,26.74-3.72,40.25-.05,21.21,3.08,42.49,9.27,62.75,3.26,10.67,7.54,21.17,12.63,31.07,5.69,11.08,12.57,21.5,20.53,31.04h0c14.58,17.52,32.96,31.59,53.6,40.93,10.57,4.79,21.84,8.44,33.19,10.77,12.24,2.51,24.78,3.76,37.27,3.72,11.84.06,24.44-1.01,36.05-4,13.97-3.56,27.39-10.66,35.58-23.14,2.75-4.19,4.87-8.98,6.15-13.85,1.31-5.01,1.96-10.25,1.92-15.43,0-3.36-.2-6.72-.63-10.05v.02c-.5-3.99-1.42-7.92-2.73-11.73-4.49-13.21-14.43-22.93-27.43-28.08-4.25-1.69-8.65-2.97-13.14-3.83h.02c-4.27-.83-8.57-1.41-12.91-1.73h0c-4.58-.35-9.17-.51-13.76-.5-6.21.02-12.11-1-17.73-3.46-2.85-1.26-5.54-2.88-7.99-4.83-2.8-2.24-5.3-4.84-7.44-7.72-4.78-6.43-8.29-14.43-10.45-22.33-4.73-17.54-5.11-36.37-1.26-54.13,1.87-8.57,4.71-16.43,9.22-23.75,1.77-2.86,3.83-5.51,6.15-7.93,2.45-2.54,5.24-4.73,8.28-6.49,3-1.72,6.22-3.02,9.57-3.86,3.8-.94,7.7-1.4,11.61-1.38ZM1444.43,972.45c-.01,14.61,2.28,29.84,7.37,43.65v-.02c5.56,15.2,15.08,28.88,29.18,37.01,4.59,2.65,9.65,4.69,14.78,5.96,5.37,1.33,11.05,2.01,16.58,1.97,6.44-.05,12.64.34,19.03,1.22,3.16.46,6.14,1.12,9.21,2.01,3.16.92,6.04,2.16,8.89,3.83,4.22,2.46,7.57,6.11,9.68,10.57,2.53,5.46,3.34,11.65,3.34,17.66,0,5.46-.82,10.43-3.15,15.19-1.13,2.28-2.6,4.38-4.35,6.22-6.96,7.23-17.59,10.68-27.07,12.38-8.2,1.47-16.5,1.99-24.81,1.99-17.98,0-34.94-2.56-51.66-8.45-18.51-6.52-35.3-17.16-49.18-31.2h0c-6.84-6.93-12.96-14.56-18.25-22.78-18.49-28.76-27.05-63.08-27.08-97.23-.02-19.29,2.74-38.18,8.35-56.62,12.17-39.7,37.78-73.13,75.62-90.32,9.28-4.19,18.98-7.34,28.94-9.39,11.22-2.3,21.83-3.29,33.27-3.31,7.15,0,13.54.36,20.63,1.32,7.5,1.03,14.37,2.72,21.09,5.89,2.54,1.2,4.95,2.69,7.17,4.44,2.25,1.77,4.22,3.9,5.81,6.31,1.54,2.37,2.7,4.98,3.43,7.73.88,3.38,1.25,6.57,1.24,10.07-.03,10.16-2.14,20.35-10.71,26.71-2.21,1.62-4.61,2.95-7.15,3.96-3.11,1.23-6.26,2.15-9.55,2.79-7.14,1.38-15.28,1.89-22.77,1.86-4.1-.01-8.19.34-12.23,1.04-21.19,3.71-36.4,17.68-45.24,36.64-2.35,5.03-4.34,10.42-5.8,15.8-3.09,11.35-4.63,23.32-4.61,35.09Z"/>
</svg>