<?xml version="1.0" encoding="UTF-8"?>
<svg id="Ebene_1" xmlns="http://www.w3.org/2000/svg" version="1.1" viewBox="0 0 1920 1080">
  <!-- Generator: Adobe Illustrator 30.0.0, SVG Export Plug-In . SVG Version: 2.1.1 Build 123)  -->
  <defs>
    <style>
      .st0 {
        fill: #fff;
      }
    </style>
  </defs>
  <polygon class="st0" points="382.87 872.32 283.73 872.32 229.28 975.37 175.76 872.32 76.64 872.32 174.34 1051.68 284.69 1051.68 382.87 872.32 382.87 872.32"/>
  <path class="st0" d="M330.95,522.55c-19.69-40.49-6.11-87.3,30.1-107.63,38.3-21.61,89.98-5.85,109.73,34.3,17.83,35.93,5.68,88.37-35.15,108.74-33.17,16.33-82.59,3.31-104.67-35.4h0Z"/>
  <path class="st0" d="M504.73,431.57c-17.14-33.77-12.07-83.07,26.41-102.85,35.11-17.96,76.44-.05,95.31,34.99,18.83,35.01,7.03,82.93-24.94,101.92-30.76,18.31-78.03,3.17-96.78-34.06h0Z"/>
  <path class="st0" d="M653.23,349.38c-13.11-27.56-16.75-69.52,13.69-84.67,28.7-11,57.03,15.23,68.76,40.87,13.09,28.7,12.55,71.25-11.83,82.77-26.47,12.5-57.51-11.19-70.62-38.98h0Z"/>
  <path class="st0" d="M669.65,532.91c-12.02-33.64-4.14-76.25,24.32-97.07,26.6-16.57,55.03,1.77,63.36,30.69,8.98,31.7,1.24,67.78-20.4,86.17-25.55,21.66-54.92,9.31-67.28-19.79h0Z"/>
  <path class="st0" d="M738.86,260.48c-2.15-12.79-2.45-39.42,11.72-26.45,17.03,15.62,26.87,40.32,31.75,61.82,1.75,8.22,10.54,41.7-7.39,35.66-12.48-4.28-31.35-42.94-36.08-71.04h0Z"/>
  <path class="st0" d="M772.81,438.87c-2.08-35.18.32-55.15,7.63-67.21,10.66-17.66,25.31,13.31,28.61,44.54,2.73,26.92,1.82,43.06-5.45,64.72-9.83,29.04-28.95-10.67-30.78-42.04h0Z"/>
  <path class="st0" d="M793.25,263.31c-6.54-29.38,2.37-64.85,13.97-81.3,16.16-22.99,41.17-13.93,48.06,9.42,8.53,28.94,4.79,74.64-20.42,98.93-15.74,15.22-36.12-2.23-41.61-27.05h0Z"/>
  <path class="st0" d="M876.86,171.09c-9.09-29.57,4.06-71.41,30.5-93.44,29.49-24.54,64.69-18.84,76.65,7.9,14.02,31.41-4.19,85.21-37.74,106.21-28.3,17.82-60.78,7.11-69.4-20.66h0Z"/>
  <path class="st0" d="M811.38,360.68c.51-8.77,1.28-15.17,8.03-22.78,20.14-18.25,40.93,12.99,48.98,32.83,6.73,16.46,20.56,65.5-.32,85.77-16.92,10.64-34.7-13.07-42.57-28.01-14.89-28.24-14.64-54.52-14.12-67.81h0Z"/>
  <path class="st0" d="M889.07,352.78c-14.02-34.67-6.09-75.18,15.79-97.44,23.8-24.05,65.46-12.06,84.64,17.98,21.72,34.08,21.67,95.5-13.7,118.09-32.33,20.55-73.58-6.11-86.73-38.62h0Z"/>
  <path class="st0" d="M1027.58,259.95c-21.38-40.94.7-93.33,30-113.65,38.84-27,93.82-16.03,118.27,27.08,19.08,33.59,7.68,94.9-35.38,119.04-36.81,20.66-90.77,10.04-112.89-32.47h0Z"/>
  <path class="st0" d="M1212.39,148.29c-21.95-41.1-6.23-87.8,30.49-105.46,40.81-19.78,90.38-4.18,114.74,33.01,24.48,37.3,8.58,92.12-26.16,107.78-47.37,21.4-101.53-2.39-119.07-35.33h0Z"/>
  <path class="st0" d="M865.52,553.99c-10.06-14.01-29.62-53.95-7.33-60.72,22.73-6.89,48,24.37,60.26,41.95,9.92,14.4,29.99,56.92,7.01,58.82-26.76,2.39-47.16-22.04-59.94-40.05h0Z"/>
  <path class="st0" d="M936.63,526.22c-16.46-24.7-22.76-65.28,3.89-81.08,32.91-19.64,74.19,9.14,95.79,43.1,16.68,26.21,20.53,66.74-10.06,78.85-30.07,11.82-70.65-12.28-89.62-40.87h0Z"/>
  <path class="st0" d="M1063.48,467.25c-28.67-50.06,1.61-94.9,22.76-107.13,39.86-22.99,91.97-5.91,117.9,30.66,28.64,40.26,8.64,96.76-25.93,111.99-44.78,19.78-95.28-1.59-114.73-35.52h0Z"/>
  <path class="st0" d="M1249.67,376.58c-24.79-36.55-15.85-94.83,23.01-122.87,40.33-29.01,98.37-14.34,122.92,27.05,25.02,42.05,2.22,104.35-36.59,123.25-38.51,18.84-87.96,4.23-109.34-27.43h0Z"/>
  <path class="st0" d="M1428.22,258.03c-17.05-33.51-9.53-89.65,23.7-108.08,35.38-19.59,77.22,8.89,91.33,42.83,13.73,33.13,9.83,82.09-25.1,103.17-28.36,17.14-70.52.32-89.93-37.92h0Z"/>
  <path class="st0" d="M1563.25,173.39c-12.18-24.82-24.89-69.32,2.38-87.85,21.6-14.6,46.42,15.13,57.68,38.03,13.27,26.8,17.45,66.8,1.56,82.68-21.25,21.51-50.1-9.53-61.61-32.86h0Z"/>
  <polygon class="st0" points="492.94 872.3 403.72 872.3 403.72 1051.68 492.94 1051.68 492.94 872.3 492.94 872.3"/>
  <path class="st0" d="M403.33,795.12v52.5h89.43v-41.47c0-6.6-5.88-11.09-11.27-11.09l-78.16.06h0Z"/>
  <path class="st0" d="M1014.63,1010.8h-88.56c-6.3,0-11.42-4.98-11.42-11.09v-6.53c0-6.14,5.12-11.11,11.42-11.11.13,0,.26.02.4.02.06,0,.12-.02.18-.02h87.98v28.73h0ZM1092.21,890.17c-7.04-8-19.29-13.16-36.2-15.53-9.87-1.38-23.93-2.32-41.77-2.32h-293.47l-54.44,103.04-53.53-103.04h-99.12l97.67,179.35h110.37l72.09-131.49h209.47c6.33,0,11.43,4.97,11.43,11.09,0,.05-.01.09-.01.12,0,.01.01.03.01.05,0,2.37-.01,13.23-.01,16.88h-97.7c-22.49,0-36.6,0-41.76.5-17.37.94-29.63,6.52-36.18,12.13-7.5,6.12-10.78,20.68-10.78,38.05v2.85c0,16.9,3.74,26.8,10.78,34.76,7.07,7.98,19.28,10.88,36.18,13.19,9.86,1.42,23.44,1.85,41.76,1.85h186.45v-123.93c0-16.91-3.74-29.6-11.23-37.56h0Z"/>
  <path class="st0" d="M1519.72,891.13c-6.57-8-20.64-14.67-36.11-17.42-3.22-.57-13.04-1.41-30.59-1.41-85.02,0-316.93.02-316.93.02v179.36h88.75v-109.14c0-6.13,5.1-11.09,11.41-11.09l14.41.02,26.59-.02c.31,0,.6.01.86.04,5.7.43,10.2,4.87,10.52,10.42.03.19.03.39.03.63v109.14h88.77v-109.12c0-.39.02-.79.06-1.18,0-.04.02-.07.02-.11.65-5.53,5.46-9.8,11.32-9.8h42.01c5.4.01,9.9,3.65,11.07,8.53.22.79.34,1.64.34,2.57v109.12h87.79v-123.94c0-15.95-3.24-28.17-10.34-36.6h0Z"/>
  <path class="st0" d="M1750.83,931.83v56.7c0,.07-.01.11-.01.18,0,.05.01.1.01.17,0,5.73-4.48,10.46-10.21,11.04h-.02c-.22.02-.43.02-.64.04-.18,0-.35.02-.52.02h-78.66c-6.24-.06-11.3-5.02-11.3-11.11,0-.07.01-.15.01-.21,0-.04-.01-.09-.01-.14v-56.72c0-.11-.01-.23-.01-.33,0-6.12,5.12-11.09,11.43-11.09h78.55c.15,0,.3.01.44.02,6.1.25,10.96,5.12,10.96,11.07,0,.06-.01.12-.01.17,0,.08.01.14.01.19h0ZM1827.88,889.7c-7.5-7.99-20.21-12.67-37.64-15.03-10.72-1.38-23.88-2.35-39.79-2.35h-100.51c-18.28,0-32.36.97-42.23,2.35-16.44,2.36-28.68,7.51-36.19,15.99-7.03,8-10.79,20.62-10.79,37.08v68.55c0,16.95,3.76,29.62,11.26,37.59,7.04,7.97,19.28,13.64,35.73,15.95,9.87,1.42,23.95,1.86,42.23,1.86h100.51c18.2,0,32.27-.44,41.77-1.86,16.83-2.31,29.08-7.98,36.56-15.95,7.06-7.97,10.81-20.63,10.81-37.59v-68.55c0-17.4-3.75-30.04-11.72-38.03h0Z"/>
</svg>